<?xml version="1.0" encoding="UTF-8" standalone="no"?>
<svg
   xmlns:dc="http://purl.org/dc/elements/1.1/"
   xmlns:cc="http://creativecommons.org/ns#"
   xmlns:rdf="http://www.w3.org/1999/02/22-rdf-syntax-ns#"
   xmlns:svg="http://www.w3.org/2000/svg"
   xmlns="http://www.w3.org/2000/svg"
   xmlns:xlink="http://www.w3.org/1999/xlink"
   xmlns:sodipodi="http://sodipodi.sourceforge.net/DTD/sodipodi-0.dtd"
   xmlns:inkscape="http://www.inkscape.org/namespaces/inkscape"
   width="292.95761mm"
   height="72.823914mm"
   viewBox="0 0 292.95761 72.823914"
   version="1.1"
   id="svg8"
   inkscape:version="1.0.2 (e86c870879, 2021-01-15)"
   sodipodi:docname="logo-inline.svg">
  <defs
     id="defs2">
    <linearGradient
       inkscape:collect="always"
       id="linearGradient2754">
      <stop
         style="stop-color:#ff8080;stop-opacity:1;"
         offset="0"
         id="stop2750" />
      <stop
         style="stop-color:#ff8080;stop-opacity:0;"
         offset="1"
         id="stop2752" />
    </linearGradient>
    <linearGradient
       inkscape:collect="always"
       xlink:href="#linearGradient2754"
       id="linearGradient2756"
       x1="-89.083488"
       y1="135.83432"
       x2="288.41721"
       y2="135.83432"
       gradientUnits="userSpaceOnUse" />
  </defs>
  <sodipodi:namedview
     id="base"
     pagecolor="#ffffff"
     bordercolor="#666666"
     borderopacity="1.0"
     inkscape:pageopacity="0.0"
     inkscape:pageshadow="2"
     inkscape:zoom="0.29834661"
     inkscape:cx="553.78455"
     inkscape:cy="153.94083"
     inkscape:document-units="mm"
     inkscape:current-layer="text835"
     inkscape:document-rotation="0"
     showgrid="false"
     inkscape:window-width="1267"
     inkscape:window-height="730"
     inkscape:window-x="83"
     inkscape:window-y="0"
     inkscape:window-maximized="0"
     showborder="true"
     borderlayer="false"
     inkscape:showpageshadow="true"
     inkscape:pagecheckerboard="false" />
  <metadata
     id="metadata5">
    <rdf:RDF>
      <cc:Work
         rdf:about="">
        <dc:format>image/svg+xml</dc:format>
        <dc:type
           rdf:resource="http://purl.org/dc/dcmitype/StillImage" />
        <dc:title />
      </cc:Work>
    </rdf:RDF>
  </metadata>
  <g
     inkscape:label="Layer 1"
     inkscape:groupmode="layer"
     id="layer1"
     transform="translate(-1.9778391,-64.269821)">
    <g
       aria-label="Cuma Galeri"
       transform="scale(1.0312389,0.9697074)"
       id="text835"
       style="font-style:normal;font-variant:normal;font-weight:bold;font-stretch:normal;font-size:53.8343px;line-height:0.95;font-family:Pacifico;-inkscape-font-specification:'Pacifico Bold';opacity:1;mix-blend-mode:normal;fill:#f14668;fill-opacity:1;fill-rule:nonzero;stroke:none;stroke-width:3.70775;stroke-miterlimit:4;stroke-dasharray:none">
      <path
         d="m 22.859468,117.15095 q -6.406281,0 -11.1437,-2.31487 -4.7374185,-2.36871 -7.2676306,-6.67545 -2.5302121,-4.30675 -2.5302121,-10.013184 0,-7.913642 2.9608865,-14.050753 3.0147209,-6.13711 8.1289792,-9.474837 5.114259,-3.391561 11.359038,-3.391561 5.814104,0 8.828825,3.014721 3.014721,2.960887 3.014721,7.859808 0,3.283892 -1.184355,5.275762 -1.13052,1.991869 -3.283892,1.991869 -1.50736,0 -2.368709,-0.699846 -0.861349,-0.699846 -0.861349,-2.045704 0,-0.484508 0.215337,-1.776532 0.323006,-1.615029 0.323006,-2.584046 0,-4.898921 -5.221927,-4.898921 -3.553064,0 -6.783122,2.314875 -3.230058,2.314874 -5.221927,6.836956 -1.9918695,4.468247 -1.9918695,10.659191 0,6.460112 3.6068985,10.013182 3.606898,3.49923 10.659191,3.49923 3.49923,0 7.052294,-0.86135 3.606898,-0.91518 7.967476,-2.74555 0.807515,-0.32301 1.345858,-0.32301 0.861349,0 1.292023,0.64602 0.430674,0.64601 0.430674,1.66886 0,3.28389 -3.553063,4.84509 -3.822236,1.66886 -7.967477,2.47637 -4.091407,0.75368 -7.805974,0.75368 z"
         style="font-style:normal;font-variant:normal;font-weight:bold;font-stretch:normal;font-size:53.8343px;font-family:Pacifico;-inkscape-font-specification:'Pacifico Bold';text-align:center;text-anchor:middle;fill:#f14668;fill-opacity:1;fill-rule:nonzero;stroke-width:3.70775;stroke-miterlimit:4;stroke-dasharray:none"
         id="path13" />
      <path
         d="m 43.477946,117.15095 q -2.422543,0 -3.983738,-2.2072 -1.50736,-2.26104 -1.50736,-5.59877 0,-4.03757 0.538343,-7.3753 0.538343,-3.39156 1.776532,-7.159961 0.538343,-1.615029 1.50736,-2.314875 0.969017,-0.699846 3.068555,-0.699846 1.184355,0 1.615029,0.37684 0.484509,0.37684 0.484509,1.130521 0,0.430674 -0.592177,2.907052 -0.538343,1.991869 -0.861349,3.606898 -1.076686,5.652601 -1.076686,7.536801 0,1.13052 0.269171,1.61503 0.269172,0.43067 0.861349,0.43067 0.807515,0 1.991869,-1.61502 1.238189,-1.61503 2.584047,-4.89893 1.399691,-3.283888 2.691715,-8.075141 0.430674,-1.615029 1.292023,-2.314875 0.915183,-0.699846 2.691715,-0.699846 1.238189,0 1.722698,0.323006 0.484508,0.269172 0.484508,1.076686 0,1.345858 -1.345857,7.3753 -1.507361,6.89079 -1.507361,8.50582 0,1.02285 0.430675,1.61503 0.430674,0.53834 1.13052,0.53834 1.076686,0 2.530212,-1.29202 1.507361,-1.34586 3.983738,-4.30675 0.646012,-0.75368 1.453527,-0.75368 0.699846,0 1.076686,0.64602 0.430674,0.64601 0.430674,1.77653 0,2.15337 -1.022852,3.33772 -2.314875,2.85322 -5.00659,4.68359 -2.63788,1.83036 -6.029441,1.83036 -2.584047,0 -3.822236,-1.99187 -1.184354,-1.99186 -1.184354,-5.59876 -0.915184,3.66073 -2.74555,5.6526 -1.830366,1.93803 -3.929904,1.93803 z"
         style="font-style:normal;font-variant:normal;font-weight:bold;font-stretch:normal;font-size:53.8343px;font-family:Pacifico;-inkscape-font-specification:'Pacifico Bold';text-align:center;text-anchor:middle;fill:#f14668;fill-opacity:1;fill-rule:nonzero;stroke-width:3.70775;stroke-miterlimit:4;stroke-dasharray:none"
         id="path15" />
      <path
         d="m 66.680524,117.15095 q -2.045704,0 -2.907052,-2.15337 -0.807515,-2.15337 -0.807515,-6.89079 0,-6.99846 1.991869,-13.297071 0.484509,-1.561195 1.561195,-2.261041 1.13052,-0.75368 3.122389,-0.75368 1.076686,0 1.507361,0.269172 0.430674,0.269171 0.430674,1.022851 0,0.861349 -0.807514,3.87607 -0.538343,2.153372 -0.861349,3.768399 -0.323006,1.5612 -0.538343,3.92991 1.453526,-4.19908 3.445395,-7.106132 2.045704,-2.907052 4.145241,-4.306744 2.153372,-1.453526 4.037573,-1.453526 1.8842,0 2.637881,0.861349 0.807514,0.861349 0.807514,2.637881 0,1.722697 -1.022852,6.244782 -0.430674,1.93803 -0.592177,2.90705 2.691715,-6.62162 5.975608,-9.636341 3.283892,-3.014721 6.13711,-3.014721 3.499229,0 3.499229,3.49923 0,2.099538 -1.184354,7.590632 -1.022852,4.68359 -1.022852,6.19095 0,2.15337 1.561195,2.15337 1.076686,0 2.53021,-1.29202 1.50736,-1.34586 3.98374,-4.30675 0.64601,-0.75368 1.45353,-0.75368 0.69984,0 1.07668,0.64602 0.43068,0.64601 0.43068,1.77653 0,2.15337 -1.02285,3.33772 -2.31488,2.85322 -5.00659,4.68359 -2.637886,1.83036 -6.029447,1.83036 -2.745549,0 -4.145241,-1.56119 -1.399692,-1.61503 -1.399692,-4.62975 0,-1.50736 0.753681,-5.38343 0.699845,-3.39156 0.699845,-4.68358 0,-0.86135 -0.592177,-0.86135 -0.699846,0 -1.991869,1.83036 -1.292023,1.77653 -2.584046,4.73742 -1.292024,2.96089 -2.099538,6.24478 -0.592177,2.58405 -1.399692,3.4454 -0.75368,0.86134 -2.476378,0.86134 -1.776532,0 -2.691715,-1.66886 -0.861349,-1.7227 -0.861349,-4.14524 0,-2.0457 0.538343,-5.92177 0.430675,-3.4454 0.430675,-4.52208 0,-0.86135 -0.592178,-0.86135 -0.807514,0 -2.045703,1.93803 -1.238189,1.93804 -2.422544,4.95276 -1.13052,3.01472 -1.830366,5.92177 -0.592177,2.53021 -1.399692,3.4454 -0.75368,0.86134 -2.422543,0.86134 z"
         style="font-style:normal;font-variant:normal;font-weight:bold;font-stretch:normal;font-size:53.8343px;font-family:Pacifico;-inkscape-font-specification:'Pacifico Bold';text-align:center;text-anchor:middle;fill:#f14668;fill-opacity:1;fill-rule:nonzero;stroke-width:3.70775;stroke-miterlimit:4;stroke-dasharray:none"
         id="path17" />
      <path
         d="m 109.10192,117.15095 q -3.06855,0 -5.00659,-2.42254 -1.8842,-2.42254 -1.8842,-6.35245 0,-4.30674 1.99187,-8.12898 1.99187,-3.876066 5.27576,-6.190941 3.33773,-2.368709 7.0523,-2.368709 1.18435,0 1.56119,0.484508 0.43067,0.430675 0.69985,1.615029 1.02285,-0.215337 2.26104,-0.215337 1.29202,0 1.99187,0.646012 0.69984,0.646011 0.69984,1.830366 0,1.238189 -0.53834,4.306742 -0.59218,3.28389 -0.91518,6.29862 -0.32301,2.96088 -0.32301,6.67545 0,2.0457 -0.86135,2.96089 -0.80751,0.86134 -2.69171,0.86134 -1.83037,0 -2.74555,-0.86134 -0.86135,-0.91519 -0.86135,-2.90706 l 0.0538,-0.86135 q -1.66886,4.62975 -5.76027,4.62975 z m 2.09954,-5.43726 q 1.50736,0 2.74555,-2.09954 1.23819,-2.09954 2.20721,-7.48297 l 1.02285,-5.43726 q -2.20721,0.05383 -4.09141,1.722697 -1.8842,1.615033 -3.01472,4.306743 -1.13052,2.69172 -1.13052,5.70644 0,1.61503 0.59218,2.47638 0.64601,0.80751 1.66886,0.80751 z"
         style="font-style:normal;font-variant:normal;font-weight:bold;font-stretch:normal;font-size:53.8343px;font-family:Pacifico;-inkscape-font-specification:'Pacifico Bold';text-align:center;text-anchor:middle;fill:#f14668;fill-opacity:1;fill-rule:nonzero;stroke-width:3.70775;stroke-miterlimit:4;stroke-dasharray:none"
         id="path19" />
      <path
         d="m 187.2692,104.9844 q 0.69985,0 1.07669,0.69985 0.43067,0.64601 0.43067,1.66886 0,1.23819 -0.37684,1.93804 -0.37684,0.69984 -1.18435,1.23819 -3.17623,2.09953 -10.12085,6.89079 -2.09954,11.1437 -5.43727,17.54998 -3.33772,6.40628 -8.45198,6.40628 -2.74555,0 -4.46825,-1.7227 -1.7227,-1.66886 -1.7227,-4.41441 0,-2.53021 1.13052,-5.11426 1.13052,-2.58405 4.19908,-5.97561 3.12239,-3.39156 8.77499,-7.75214 l 0.1615,-1.02285 q -4.25291,1.77653 -8.34431,1.77653 -6.02945,0 -10.60536,-2.31487 -4.57592,-2.36871 -7.10613,-6.67545 -2.53021,-4.30675 -2.53021,-10.013184 0,-7.967477 3.01472,-14.050753 3.01472,-6.13711 8.29048,-9.474837 5.3296,-3.391561 11.89738,-3.391561 6.29862,0 9.42101,2.960887 3.17622,2.907052 3.17622,7.752139 0,3.176224 -1.18436,5.114259 -1.13052,1.8842 -3.28389,1.8842 -1.45352,0 -2.36871,-0.699846 -0.86135,-0.699846 -0.86135,-1.938034 0,-0.538343 0.21534,-1.830367 0.32301,-1.50736 0.32301,-2.368709 0,-2.261041 -1.39969,-3.499229 -1.34586,-1.238189 -4.57592,-1.238189 -3.9299,0 -7.32146,2.26104 -3.33773,2.261041 -5.38344,6.783122 -2.0457,4.468247 -2.0457,10.76686 0,6.460112 3.49923,10.013182 3.55306,3.49923 10.22852,3.49923 3.71457,0 7.75214,-1.66887 l 0.75368,-6.56778 h -5.4911 q -1.50736,0 -2.31488,-0.69985 -0.80751,-0.75368 -0.80751,-2.42254 0,-1.50736 0.80751,-2.368709 0.80752,-0.861349 2.15338,-0.861349 h 10.06701 q 1.18436,0 1.93804,0.807515 0.80751,0.75368 0.64601,2.207206 -0.16151,1.722697 -1.07669,7.805977 l -0.59218,4.0914 q 4.30675,-3.23005 7.85981,-5.59876 0.69985,-0.43068 1.23819,-0.43068 z m -23.47175,31.17006 q 1.39969,0 3.06855,-3.17622 1.66886,-3.17623 3.12239,-10.22852 -4.09141,3.49923 -5.92177,6.29861 -1.77654,2.85322 -1.77654,5.00659 0,2.09954 1.50737,2.09954 z"
         style="font-style:normal;font-variant:normal;font-weight:bold;font-stretch:normal;font-size:53.8343px;font-family:Pacifico;-inkscape-font-specification:'Pacifico Bold';text-align:center;text-anchor:middle;fill:#f14668;fill-opacity:1;fill-rule:nonzero;stroke-width:3.70775;stroke-miterlimit:4;stroke-dasharray:none"
         id="path21" />
      <path
         d="m 191.57589,117.15095 q -3.33773,0 -5.3296,-2.42254 -1.99187,-2.42254 -1.99187,-6.35245 0,-4.30674 1.99187,-8.12898 1.99187,-3.876066 5.27576,-6.190941 3.33773,-2.368709 7.05229,-2.368709 1.18436,0 1.5612,0.484508 0.43067,0.430675 0.69985,1.615029 1.13052,-0.215337 2.3687,-0.215337 2.63789,0 2.63789,1.884201 0,1.13052 -0.80752,5.383429 -1.23819,6.19095 -1.23819,8.61349 0,0.80751 0.37684,1.29202 0.43068,0.48451 1.07669,0.48451 1.02285,0 2.47638,-1.29202 1.45352,-1.34586 3.9299,-4.30675 0.64601,-0.75368 1.45353,-0.75368 0.69984,0 1.07668,0.64602 0.43068,0.64601 0.43068,1.77653 0,2.15337 -1.02286,3.33772 -2.2072,2.74555 -4.68358,4.62975 -2.47638,1.8842 -4.79125,1.8842 -1.77653,0 -3.28389,-1.18435 -1.45353,-1.23819 -2.20721,-3.33773 -2.79938,4.52208 -7.05229,4.52208 z m 1.93803,-5.43726 q 1.18435,0 2.26104,-1.39969 1.07669,-1.39969 1.5612,-3.71457 l 1.99186,-9.90551 q -2.26104,0.05383 -4.19907,1.722697 -1.8842,1.615033 -3.01472,4.306743 -1.13052,2.69172 -1.13052,5.70644 0,1.66886 0.64601,2.47638 0.69985,0.80751 1.8842,0.80751 z"
         style="font-style:normal;font-variant:normal;font-weight:bold;font-stretch:normal;font-size:53.8343px;font-family:Pacifico;-inkscape-font-specification:'Pacifico Bold';text-align:center;text-anchor:middle;fill:#f14668;fill-opacity:1;fill-rule:nonzero;stroke-width:3.70775;stroke-miterlimit:4;stroke-dasharray:none"
         id="path23" />
      <path
         d="m 230.65954,104.87673 q 0.69985,0 1.07669,0.64602 0.43068,0.64601 0.43068,1.77653 0,2.15337 -1.02286,3.33772 -2.31487,2.85322 -5.06042,4.68359 -2.69172,1.83036 -6.13711,1.83036 -4.73742,0 -7.05229,-4.30674 -2.26105,-4.30674 -2.26105,-11.1437 0,-6.567785 1.66887,-14.965936 1.7227,-8.398151 5.00659,-14.427593 3.33772,-6.029441 7.91364,-6.029441 2.58405,0 4.03757,2.422543 1.50736,2.368709 1.50736,6.836956 0,6.406282 -3.55306,14.858267 -3.55306,8.451986 -9.63634,16.742464 0.37684,2.20721 1.23819,3.17623 0.86135,0.91518 2.26104,0.91518 2.20721,0 3.87607,-1.23819 1.66886,-1.29202 4.25291,-4.36058 0.64601,-0.75368 1.45352,-0.75368 z m -6.62161,-33.269595 q -1.23819,0 -2.79939,4.468247 -1.56119,4.468247 -2.74555,11.089866 -1.18435,6.621619 -1.29202,12.704895 3.82223,-6.298613 6.08328,-12.597226 2.26104,-6.352448 2.26104,-11.574375 0,-4.091407 -1.50736,-4.091407 z"
         style="font-style:normal;font-variant:normal;font-weight:bold;font-stretch:normal;font-size:53.8343px;font-family:Pacifico;-inkscape-font-specification:'Pacifico Bold';text-align:center;text-anchor:middle;fill:#f14668;fill-opacity:1;fill-rule:nonzero;stroke-width:3.70775;stroke-miterlimit:4;stroke-dasharray:none"
         id="path25" />
      <path
         d="m 251.81634,104.87673 q 0.69984,0 1.07669,0.64602 0.43067,0.64601 0.43067,1.77653 0,2.15337 -1.02285,3.33772 -1.99187,2.42255 -5.6526,4.46825 -3.6069,2.0457 -7.75214,2.0457 -5.6526,0 -8.77499,-3.06855 -3.12239,-3.06856 -3.12239,-8.39815 0,-3.71457 1.56119,-6.890793 1.5612,-3.230058 4.30675,-5.114258 2.79938,-1.884201 6.29861,-1.884201 3.12239,0 5.00659,1.884201 1.8842,1.830366 1.8842,5.00659 0,3.714571 -2.69172,6.406281 -2.63788,2.63788 -8.99032,4.19908 1.34585,2.47637 5.11425,2.47637 2.42255,0 5.4911,-1.66886 3.12239,-1.7227 5.38343,-4.46825 0.64601,-0.75368 1.45353,-0.75368 z M 238.2501,97.07076 q -1.99187,0 -3.39157,2.314875 -1.34585,2.314875 -1.34585,5.598765 v 0.10767 q 3.17622,-0.75368 5.00659,-2.26104 1.83036,-1.50736 1.83036,-3.49923 0,-1.022851 -0.59217,-1.615029 -0.53835,-0.646011 -1.50736,-0.646011 z"
         style="font-style:normal;font-variant:normal;font-weight:bold;font-stretch:normal;font-size:53.8343px;font-family:Pacifico;-inkscape-font-specification:'Pacifico Bold';text-align:center;text-anchor:middle;fill:#f14668;fill-opacity:1;fill-rule:nonzero;stroke-width:3.70775;stroke-miterlimit:4;stroke-dasharray:none"
         id="path27" />
      <path
         d="m 252.78534,117.15095 q -2.04571,0 -2.90706,-2.15337 -0.80751,-2.15337 -0.80751,-6.89079 0,-6.99846 1.99187,-13.297071 0.48451,-1.561195 1.56119,-2.261041 1.13052,-0.75368 3.12239,-0.75368 1.07669,0 1.50736,0.269172 0.43068,0.269171 0.43068,1.022851 0,0.861349 -0.80752,3.87607 -0.53834,2.153372 -0.86135,3.768399 -0.323,1.61503 -0.53834,3.98374 1.77653,-4.62975 3.98374,-7.536802 2.20721,-2.907052 4.30674,-4.145241 2.15338,-1.238189 3.92991,-1.238189 3.49923,0 3.49923,3.49923 0,0.699846 -0.48451,3.391561 -0.43068,2.153371 -0.43068,2.691711 0,1.8842 1.34586,1.8842 1.50736,0 3.87607,-2.3687 0.69985,-0.69985 1.45353,-0.69985 0.69984,0 1.07668,0.64601 0.43068,0.59218 0.43068,1.61503 0,1.99187 -1.07669,3.12239 -1.50736,1.56119 -3.55306,2.69171 -1.99187,1.07669 -4.25291,1.07669 -2.85322,0 -4.36058,-1.45353 -1.45353,-1.45352 -1.45353,-3.9299 0,-0.80751 0.16151,-1.61503 0.10767,-1.07668 0.10767,-1.45352 0,-0.86135 -0.59218,-0.86135 -0.80752,0 -2.15337,1.83036 -1.29203,1.77653 -2.58405,4.73742 -1.29202,2.96089 -2.09954,6.24478 -0.59218,2.53021 -1.39969,3.4454 -0.75368,0.86134 -2.42254,0.86134 z"
         style="font-style:normal;font-variant:normal;font-weight:bold;font-stretch:normal;font-size:53.8343px;font-family:Pacifico;-inkscape-font-specification:'Pacifico Bold';text-align:center;text-anchor:middle;fill:#f14668;fill-opacity:1;fill-rule:nonzero;stroke-width:3.70775;stroke-miterlimit:4;stroke-dasharray:none"
         id="path29" />
      <path
         d="m 280.88683,88.241934 q -2.26104,0 -3.39156,-1.022851 -1.13052,-1.076686 -1.13052,-2.960887 0,-1.8842 1.45353,-3.122389 1.50736,-1.292024 3.71456,-1.292024 1.99187,0 3.23006,0.969018 1.23819,0.969017 1.23819,2.745549 0,2.153372 -1.39969,3.445395 -1.39969,1.238189 -3.71457,1.238189 z m -5.16809,28.909016 q -1.7227,0 -2.36871,-0.69984 -0.64601,-0.69985 -0.64601,-2.20721 0,-0.43067 0.10767,-1.50736 0.86135,-9.85168 2.85322,-17.926821 0.43067,-1.668863 1.39969,-2.314875 1.02285,-0.699846 3.23006,-0.699846 2.31487,0 2.31487,1.884201 0,0.269171 -0.10767,1.022852 -2.42254,11.520539 -2.90705,19.326509 -0.10767,1.7227 -1.02285,2.42255 -0.91519,0.69984 -2.85322,0.69984 z"
         style="font-style:normal;font-variant:normal;font-weight:bold;font-stretch:normal;font-size:53.8343px;font-family:Pacifico;-inkscape-font-specification:'Pacifico Bold';text-align:center;text-anchor:middle;fill:#f14668;fill-opacity:1;fill-rule:nonzero;stroke-width:3.70775;stroke-miterlimit:4;stroke-dasharray:none"
         id="path31" />
    </g>
  </g>
</svg>
